<svg xmlns="http://www.w3.org/2000/svg" xmlns:xlink="http://www.w3.org/1999/xlink" width="300" zoomAndPan="magnify" viewBox="0 0 224.87999 60" height="80" preserveAspectRatio="xMidYMid meet" version="1.2"><defs><clipPath id="55427ad2e0"><path d="M 0 0.015625 L 224.761719 0.015625 L 224.761719 59.984375 L 0 59.984375 Z M 0 0.015625 "/></clipPath></defs><g id="b15fda4032"><g clip-rule="nonzero" clip-path="url(#55427ad2e0)"><path style=" stroke:none;fill-rule:nonzero;fill:#ffffff;fill-opacity:1;" d="M 0 0.015625 L 224.878906 0.015625 L 224.878906 59.984375 L 0 59.984375 Z M 0 0.015625 "/><path style=" stroke:none;fill-rule:nonzero;fill:#f1efe7;fill-opacity:1;" d="M 0 0.015625 L 224.878906 0.015625 L 224.878906 59.984375 L 0 59.984375 Z M 0 0.015625 "/></g><g style="fill:#020618;fill-opacity:1;"><g transform="translate(119.06479, 52.701207)"><path style="stroke:none" d="M 36.25 -32.46875 L 35.21875 -32.46875 C 35.5625 -34.300781 35.734375 -35.757812 35.734375 -36.84375 C 35.734375 -40.15625 34.054688 -41.8125 30.703125 -41.8125 L 26.515625 -41.8125 L 18.8125 -8.421875 C 18.207031 -5.941406 17.90625 -4.332031 17.90625 -3.59375 C 17.90625 -2.675781 18.21875 -2.039062 18.84375 -1.6875 C 19.476562 -1.34375 20.625 -1.148438 22.28125 -1.109375 L 22.015625 0 L 6.203125 0 L 6.46875 -1.109375 L 6.859375 -1.109375 C 8.640625 -1.109375 9.929688 -1.507812 10.734375 -2.3125 C 11.546875 -3.125 12.234375 -4.679688 12.796875 -6.984375 L 20.84375 -41.8125 L 19.53125 -41.8125 C 17.226562 -41.71875 15.359375 -41.363281 13.921875 -40.75 C 12.484375 -40.144531 11.328125 -39.191406 10.453125 -37.890625 C 9.578125 -36.585938 8.835938 -34.78125 8.234375 -32.46875 L 7.1875 -32.46875 L 9.734375 -43.765625 L 38.875 -43.765625 Z M 36.25 -32.46875 "/></g></g><g style="fill:#020618;fill-opacity:1;"><g transform="translate(149.764634, 52.701207)"><path style="stroke:none" d="M 12.015625 -29.65625 L 9.34375 -14.234375 L 9.46875 -14.109375 C 11.125 -18.503906 12.539062 -21.832031 13.71875 -24.09375 C 14.894531 -26.363281 15.875 -27.859375 16.65625 -28.578125 C 17.4375 -29.296875 18.242188 -29.65625 19.078125 -29.65625 C 19.679688 -29.65625 20.15625 -29.425781 20.5 -28.96875 C 20.851562 -28.507812 21.03125 -27.867188 21.03125 -27.046875 C 21.03125 -25.566406 20.75 -24.3125 20.1875 -23.28125 C 19.625 -22.257812 18.925781 -21.75 18.09375 -21.75 C 17.707031 -21.75 17.4375 -21.859375 17.28125 -22.078125 C 17.125 -22.296875 16.984375 -22.625 16.859375 -23.0625 C 16.679688 -23.800781 16.375 -24.171875 15.9375 -24.171875 C 15.5 -24.171875 15.03125 -23.734375 14.53125 -22.859375 C 14.03125 -21.992188 13.613281 -21.164062 13.28125 -20.375 C 12.957031 -19.59375 12.753906 -19.09375 12.671875 -18.875 C 11.753906 -16.832031 10.9375 -14.816406 10.21875 -12.828125 C 9.5 -10.847656 9.03125 -9.296875 8.8125 -8.171875 L 7.25 0 L 2.421875 0 L 6.203125 -21.6875 C 6.460938 -23.082031 6.59375 -24.0625 6.59375 -24.625 C 6.59375 -26.019531 5.765625 -26.71875 4.109375 -26.71875 L 4.375 -27.765625 L 10.96875 -29.65625 Z M 12.015625 -29.65625 "/></g></g><g style="fill:#020618;fill-opacity:1;"><g transform="translate(164.134337, 52.701207)"><path style="stroke:none" d="M 13.84375 -42.59375 C 14.757812 -42.59375 15.53125 -42.273438 16.15625 -41.640625 C 16.789062 -41.015625 17.109375 -40.242188 17.109375 -39.328125 C 17.109375 -38.410156 16.789062 -37.632812 16.15625 -37 C 15.53125 -36.375 14.757812 -36.0625 13.84375 -36.0625 C 12.9375 -36.0625 12.164062 -36.375 11.53125 -37 C 10.894531 -37.632812 10.578125 -38.410156 10.578125 -39.328125 C 10.578125 -40.242188 10.894531 -41.015625 11.53125 -41.640625 C 12.164062 -42.273438 12.9375 -42.59375 13.84375 -42.59375 Z M 14.234375 -29.65625 L 8.8125 -6.078125 C 8.507812 -4.859375 8.359375 -4.117188 8.359375 -3.859375 C 8.359375 -3.460938 8.429688 -3.175781 8.578125 -3 C 8.734375 -2.832031 8.898438 -2.75 9.078125 -2.75 C 9.472656 -2.75 10.09375 -3.148438 10.9375 -3.953125 C 11.789062 -4.753906 12.648438 -5.765625 13.515625 -6.984375 L 14.4375 -6.40625 C 12.914062 -4.3125 11.398438 -2.585938 9.890625 -1.234375 C 8.390625 0.109375 7.050781 0.78125 5.875 0.78125 C 5.09375 0.78125 4.484375 0.519531 4.046875 0 C 3.609375 -0.519531 3.390625 -1.21875 3.390625 -2.09375 C 3.390625 -3.09375 3.5625 -4.3125 3.90625 -5.75 C 4.257812 -7.1875 4.4375 -7.945312 4.4375 -8.03125 L 7.1875 -20.125 C 7.488281 -21.300781 7.710938 -22.28125 7.859375 -23.0625 C 8.015625 -23.84375 8.09375 -24.453125 8.09375 -24.890625 C 8.09375 -26.242188 7.421875 -26.921875 6.078125 -26.921875 C 5.859375 -26.921875 5.226562 -26.851562 4.1875 -26.71875 L 4.4375 -27.765625 L 13.203125 -29.65625 Z M 14.234375 -29.65625 "/></g></g><g style="fill:#020618;fill-opacity:1;"><g transform="translate(175.760582, 52.701207)"><path style="stroke:none" d="M 17.765625 -29.65625 C 19.242188 -29.65625 20.453125 -29.226562 21.390625 -28.375 C 22.328125 -27.53125 22.796875 -26.4375 22.796875 -25.09375 C 22.796875 -23.695312 22.285156 -22.171875 21.265625 -20.515625 C 20.242188 -18.859375 18.644531 -17.332031 16.46875 -15.9375 C 14.289062 -14.539062 11.609375 -13.539062 8.421875 -12.9375 C 8.296875 -11.238281 8.234375 -10.171875 8.234375 -9.734375 C 8.234375 -7.515625 8.582031 -5.738281 9.28125 -4.40625 C 9.976562 -3.082031 10.910156 -2.421875 12.078125 -2.421875 C 13.253906 -2.421875 14.398438 -2.8125 15.515625 -3.59375 C 16.628906 -4.375 17.75 -5.351562 18.875 -6.53125 L 19.734375 -5.8125 C 17.335938 -3.332031 15.441406 -1.613281 14.046875 -0.65625 C 12.648438 0.300781 11.125 0.78125 9.46875 0.78125 C 7.425781 0.78125 5.828125 -0.03125 4.671875 -1.65625 C 3.515625 -3.289062 2.9375 -5.503906 2.9375 -8.296875 C 2.9375 -11.085938 3.632812 -14.179688 5.03125 -17.578125 C 6.425781 -20.972656 8.253906 -23.832031 10.515625 -26.15625 C 12.785156 -28.488281 15.203125 -29.65625 17.765625 -29.65625 Z M 8.75 -14.3125 C 10.800781 -14.695312 12.566406 -15.53125 14.046875 -16.8125 C 15.523438 -18.101562 16.625 -19.550781 17.34375 -21.15625 C 18.0625 -22.769531 18.421875 -24.296875 18.421875 -25.734375 C 18.421875 -26.472656 18.269531 -27.070312 17.96875 -27.53125 C 17.664062 -27.988281 17.1875 -28.21875 16.53125 -28.21875 C 14.832031 -28.21875 13.273438 -26.710938 11.859375 -23.703125 C 10.441406 -20.703125 9.40625 -17.570312 8.75 -14.3125 Z M 8.75 -14.3125 "/></g></g><g style="fill:#020618;fill-opacity:1;"><g transform="translate(193.526956, 52.701207)"><path style="stroke:none" d="M 10.515625 -29.65625 C 11.253906 -29.65625 11.851562 -29.394531 12.3125 -28.875 C 12.769531 -28.351562 13 -27.742188 13 -27.046875 C 13 -26.347656 12.859375 -25.367188 12.578125 -24.109375 C 12.296875 -22.847656 12.109375 -22.0625 12.015625 -21.75 L 8.5 -6.53125 C 8.363281 -6.007812 8.296875 -5.488281 8.296875 -4.96875 C 8.296875 -3.875 8.644531 -3.328125 9.34375 -3.328125 C 9.738281 -3.328125 10.148438 -3.457031 10.578125 -3.71875 C 11.015625 -3.976562 11.5625 -4.394531 12.21875 -4.96875 C 14.175781 -6.75 16.125 -9.347656 18.0625 -12.765625 C 20 -16.191406 21.425781 -19.925781 22.34375 -23.96875 L 23.65625 -29.65625 L 28.484375 -29.65625 L 23 -5.75 C 22.820312 -5.050781 22.734375 -4.441406 22.734375 -3.921875 C 22.734375 -3.660156 22.785156 -3.429688 22.890625 -3.234375 C 23.003906 -3.035156 23.148438 -2.9375 23.328125 -2.9375 C 23.753906 -2.9375 24.25 -3.285156 24.8125 -3.984375 C 25.382812 -4.679688 26.085938 -5.707031 26.921875 -7.0625 L 27.828125 -6.46875 C 26.171875 -3.8125 24.765625 -1.9375 23.609375 -0.84375 C 22.460938 0.238281 21.382812 0.78125 20.375 0.78125 C 19.550781 0.78125 18.890625 0.5 18.390625 -0.0625 C 17.890625 -0.632812 17.640625 -1.421875 17.640625 -2.421875 C 17.640625 -2.941406 17.703125 -3.5625 17.828125 -4.28125 C 17.960938 -5 18.070312 -5.53125 18.15625 -5.875 L 20.0625 -13.921875 L 19.921875 -14.046875 C 14.523438 -4.160156 10.019531 0.78125 6.40625 0.78125 C 5.445312 0.78125 4.679688 0.445312 4.109375 -0.21875 C 3.546875 -0.894531 3.265625 -1.820312 3.265625 -3 C 3.265625 -4.394531 3.523438 -6.140625 4.046875 -8.234375 L 7.578125 -23.25 C 7.796875 -24.125 7.90625 -24.78125 7.90625 -25.21875 C 7.90625 -25.476562 7.882812 -25.691406 7.84375 -25.859375 C 7.800781 -26.035156 7.691406 -26.125 7.515625 -26.125 C 7.160156 -26.125 6.6875 -25.734375 6.09375 -24.953125 C 5.507812 -24.171875 4.976562 -23.363281 4.5 -22.53125 L 3.59375 -23.1875 C 6.113281 -27.5 8.421875 -29.65625 10.515625 -29.65625 Z M 10.515625 -29.65625 "/></g></g><g style="fill:#020618;fill-opacity:1;"><g transform="translate(-0.259578, 51.951608)"><path style="stroke:none" d="M 30.359375 -11.421875 L 30.484375 -11.421875 L 30.484375 -34.875 C 30.484375 -36.394531 30.3125 -37.515625 29.96875 -38.234375 C 29.632812 -38.960938 29.09375 -39.4375 28.34375 -39.65625 C 27.601562 -39.875 26.53125 -39.984375 25.125 -39.984375 L 25.125 -41 L 36.984375 -41 L 36.984375 -39.984375 C 35.492188 -39.984375 34.414062 -39.660156 33.75 -39.015625 C 33.09375 -38.378906 32.765625 -37.335938 32.765625 -35.890625 L 32.765625 0.65625 L 31.921875 0.65625 L 8.59375 -32.59375 L 8.484375 -32.59375 L 8.484375 -6.1875 C 8.484375 -4.707031 8.640625 -3.597656 8.953125 -2.859375 C 9.273438 -2.117188 9.773438 -1.632812 10.453125 -1.40625 C 11.140625 -1.1875 12.125 -1.054688 13.40625 -1.015625 L 14.25 -1.015625 L 14.25 0 L 1.5625 0 L 1.5625 -1.015625 C 3.25 -1.097656 4.441406 -1.421875 5.140625 -1.984375 C 5.835938 -2.546875 6.1875 -3.664062 6.1875 -5.34375 L 6.1875 -35.890625 C 6.03125 -36.097656 5.859375 -36.332031 5.671875 -36.59375 C 5.492188 -36.851562 5.285156 -37.117188 5.046875 -37.390625 C 4.285156 -38.441406 3.65625 -39.132812 3.15625 -39.46875 C 2.65625 -39.8125 1.820312 -39.984375 0.65625 -39.984375 L 0.65625 -41 L 9.5625 -41 Z M 30.359375 -11.421875 "/></g></g><g style="fill:#020618;fill-opacity:1;"><g transform="translate(34.241807, 51.951608)"><path style="stroke:none" d="M 7.578125 -42.875 C 8.421875 -42.875 9.128906 -42.582031 9.703125 -42 C 10.285156 -41.414062 10.578125 -40.703125 10.578125 -39.859375 C 10.578125 -39.015625 10.285156 -38.300781 9.703125 -37.71875 C 9.128906 -37.144531 8.421875 -36.859375 7.578125 -36.859375 C 6.734375 -36.859375 6.019531 -37.144531 5.4375 -37.71875 C 4.851562 -38.300781 4.5625 -39.015625 4.5625 -39.859375 C 4.5625 -40.703125 4.851562 -41.414062 5.4375 -42 C 6.019531 -42.582031 6.734375 -42.875 7.578125 -42.875 Z M 10.09375 -4.875 C 10.09375 -3.707031 10.382812 -2.769531 10.96875 -2.0625 C 11.550781 -1.363281 12.441406 -1.015625 13.640625 -1.015625 L 13.640625 0 L 1.5 0 L 1.5 -1.015625 L 1.921875 -1.015625 C 3.046875 -1.097656 3.890625 -1.488281 4.453125 -2.1875 C 5.015625 -2.894531 5.296875 -4.007812 5.296875 -5.53125 L 5.296875 -21.53125 C 5.296875 -22.125 5.144531 -22.710938 4.84375 -23.296875 C 4.539062 -23.878906 4.03125 -24.171875 3.3125 -24.171875 C 2.863281 -24.171875 2.320312 -24.050781 1.6875 -23.8125 L 1.265625 -24.71875 L 9.078125 -28.3125 L 10.09375 -28.3125 Z M 10.09375 -4.875 "/></g></g><g style="fill:#020618;fill-opacity:1;"><g transform="translate(44.940191, 51.951608)"><path style="stroke:none" d="M 11.484375 -28.3125 C 12.765625 -28.3125 13.96875 -28.019531 15.09375 -27.4375 C 16.21875 -26.863281 17.117188 -26.09375 17.796875 -25.125 C 18.472656 -24.164062 18.8125 -23.144531 18.8125 -22.0625 C 18.8125 -21.257812 18.550781 -20.617188 18.03125 -20.140625 C 17.507812 -19.660156 16.847656 -19.421875 16.046875 -19.421875 C 15.128906 -19.421875 14.378906 -19.707031 13.796875 -20.28125 C 13.210938 -20.863281 12.921875 -21.578125 12.921875 -22.421875 C 12.921875 -22.628906 12.972656 -22.921875 13.078125 -23.296875 C 13.179688 -23.679688 13.234375 -23.992188 13.234375 -24.234375 C 13.234375 -24.828125 13.007812 -25.320312 12.5625 -25.71875 C 12.125 -26.125 11.5625 -26.328125 10.875 -26.328125 C 9.4375 -26.328125 8.335938 -25.523438 7.578125 -23.921875 C 6.816406 -22.328125 6.4375 -19.925781 6.4375 -16.71875 C 6.4375 -12.707031 7.003906 -9.578125 8.140625 -7.328125 C 9.285156 -5.085938 10.859375 -3.96875 12.859375 -3.96875 C 14.265625 -3.96875 15.4375 -4.546875 16.375 -5.703125 C 17.320312 -6.867188 17.992188 -8.472656 18.390625 -10.515625 L 19.421875 -10.28125 C 18.984375 -6.875 18.019531 -4.164062 16.53125 -2.15625 C 15.050781 -0.15625 13.207031 0.84375 11 0.84375 C 9.15625 0.84375 7.519531 0.253906 6.09375 -0.921875 C 4.675781 -2.109375 3.578125 -3.773438 2.796875 -5.921875 C 2.015625 -8.066406 1.625 -10.539062 1.625 -13.34375 C 1.625 -16.3125 2.035156 -18.925781 2.859375 -21.1875 C 3.679688 -23.457031 4.84375 -25.210938 6.34375 -26.453125 C 7.84375 -27.691406 9.554688 -28.3125 11.484375 -28.3125 Z M 11.484375 -28.3125 "/></g></g><g style="fill:#020618;fill-opacity:1;"><g transform="translate(61.28878, 51.951608)"><path style="stroke:none" d="M 13.640625 -28.3125 C 15.804688 -28.3125 17.738281 -27.703125 19.4375 -26.484375 C 21.144531 -25.265625 22.476562 -23.570312 23.4375 -21.40625 C 24.40625 -19.238281 24.890625 -16.753906 24.890625 -13.953125 C 24.890625 -11.109375 24.398438 -8.5625 23.421875 -6.3125 C 22.441406 -4.070312 21.066406 -2.316406 19.296875 -1.046875 C 17.535156 0.210938 15.53125 0.84375 13.28125 0.84375 C 11.082031 0.84375 9.128906 0.234375 7.421875 -0.984375 C 5.722656 -2.210938 4.390625 -3.925781 3.421875 -6.125 C 2.460938 -8.332031 1.984375 -10.859375 1.984375 -13.703125 C 1.984375 -16.554688 2.484375 -19.082031 3.484375 -21.28125 C 4.484375 -23.488281 5.863281 -25.210938 7.625 -26.453125 C 9.394531 -27.691406 11.398438 -28.3125 13.640625 -28.3125 Z M 7.578125 -15.453125 C 7.578125 -11.046875 8.078125 -7.554688 9.078125 -4.984375 C 10.078125 -2.421875 11.640625 -1.140625 13.765625 -1.140625 C 15.804688 -1.140625 17.238281 -2.117188 18.0625 -4.078125 C 18.882812 -6.046875 19.296875 -8.753906 19.296875 -12.203125 C 19.296875 -17.210938 18.753906 -20.816406 17.671875 -23.015625 C 16.585938 -25.222656 15.046875 -26.328125 13.046875 -26.328125 C 11.117188 -26.328125 9.722656 -25.375 8.859375 -23.46875 C 8.003906 -21.570312 7.578125 -18.898438 7.578125 -15.453125 Z M 7.578125 -15.453125 "/></g></g><g style="fill:#020618;fill-opacity:1;"><g transform="translate(83.888665, 51.951608)"><path style="stroke:none" d="M 10.046875 -42.875 L 10.046875 -4.984375 C 10.046875 -2.335938 11.242188 -1.015625 13.640625 -1.015625 L 13.640625 0 L 1.390625 0 L 1.390625 -1.015625 C 2.742188 -1.015625 3.722656 -1.375 4.328125 -2.09375 C 4.929688 -2.820312 5.234375 -4.007812 5.234375 -5.65625 L 5.234375 -34.6875 C 5.234375 -36.332031 5.03125 -37.414062 4.625 -37.9375 C 4.226562 -38.457031 3.707031 -38.71875 3.0625 -38.71875 C 2.625 -38.71875 2.066406 -38.597656 1.390625 -38.359375 L 0.96875 -39.328125 L 8.953125 -42.875 Z M 10.046875 -42.875 "/></g></g><g style="fill:#020618;fill-opacity:1;"><g transform="translate(94.587049, 51.951608)"><path style="stroke:none" d="M 10.640625 -28.3125 C 13.328125 -28.3125 15.421875 -27.160156 16.921875 -24.859375 C 18.429688 -22.554688 19.203125 -19.34375 19.234375 -15.21875 L 6.125 -15.21875 C 6.289062 -11.644531 6.914062 -8.84375 8 -6.8125 C 9.082031 -4.789062 10.523438 -3.78125 12.328125 -3.78125 C 14.804688 -3.78125 16.789062 -5.804688 18.28125 -9.859375 L 19.234375 -9.4375 C 18.753906 -6.394531 17.703125 -3.921875 16.078125 -2.015625 C 14.453125 -0.109375 12.539062 0.84375 10.34375 0.84375 C 8.613281 0.84375 7.085938 0.265625 5.765625 -0.890625 C 4.441406 -2.054688 3.398438 -3.703125 2.640625 -5.828125 C 1.878906 -7.953125 1.5 -10.378906 1.5 -13.109375 C 1.5 -15.515625 1.789062 -17.867188 2.375 -20.171875 C 2.957031 -22.472656 3.9375 -24.40625 5.3125 -25.96875 C 6.695312 -27.53125 8.472656 -28.3125 10.640625 -28.3125 Z M 6.125 -17.078125 L 14.125 -17.078125 C 14.082031 -20.441406 13.722656 -22.820312 13.046875 -24.21875 C 12.367188 -25.625 11.40625 -26.328125 10.15625 -26.328125 C 8.757812 -26.328125 7.757812 -25.535156 7.15625 -23.953125 C 6.550781 -22.367188 6.207031 -20.078125 6.125 -17.078125 Z M 6.125 -17.078125 "/></g></g></g></svg>